<svg width="25" height="25" viewBox="0 0 25 25" fill="none" xmlns="http://www.w3.org/2000/svg">
<path d="M16.4868 24.9954C14.4796 24.9234 12.6128 24.3875 10.9698 23.4925L11.0351 23.525C8.9154 22.4179 7.09839 21.0668 5.52471 19.4748L5.52259 19.4726C0.181799 14.128 -1.57166 7.50974 1.53083 4.39516L5.19317 0.735022L12.3037 7.8434L9.45443 10.7189C9.24543 10.9295 9.11627 11.2196 9.11627 11.5399C9.11627 11.8602 9.24543 12.1503 9.4545 12.361L12.6363 15.5407C12.8465 15.7495 13.1362 15.8785 13.4559 15.8785C13.7757 15.8785 14.0654 15.7495 14.2757 15.5407L17.1552 12.6913L24.2658 19.7997L20.6056 23.4587C19.5923 24.4133 18.223 25 16.7166 25C16.6358 25 16.5552 24.9983 16.4752 24.995L16.4868 24.9954ZM5.19317 3.80395L3.07016 5.93073C2.10594 6.899 1.91025 8.67364 2.53424 10.7993C3.49182 13.6105 5.04636 16.004 7.0564 17.9253L7.06299 17.9316C10.0785 20.9462 13.694 22.8219 16.49 22.8219C16.5573 22.8265 16.6358 22.8291 16.7149 22.8291C17.6235 22.8291 18.4517 22.4847 19.0759 21.9194L19.0729 21.9221L21.1949 19.8008L17.1466 15.7581L15.8062 17.084C15.203 17.6836 14.3714 18.0542 13.4533 18.0542C12.5352 18.0542 11.7036 17.6836 11.1001 17.0838L7.91412 13.8965C7.31513 13.2925 6.94499 12.4608 6.94499 11.5426C6.94499 10.6245 7.31513 9.79282 7.91434 9.18853L9.23705 7.85096L5.19317 3.80395Z" fill="#333333"/>
<path d="M23.4624 0L24.9995 1.53664L18.5499 7.98428L22.1546 7.98428V10.1578L14.8386 10.1578V2.84403H17.0128V6.44762L23.4624 0Z" fill="#333333"/>
</svg>
